<?xml version="1.0" encoding="UTF-8" standalone="no"?>
<!DOCTYPE svg PUBLIC "-//W3C//DTD SVG 1.1//EN"
 "http://www.w3.org/Graphics/SVG/1.1/DTD/svg11.dtd">
<!-- Generated by graphviz version 10.0.1 (20240210.2158)
 -->
<!-- Title: dependency&#45;cruiser output Pages: 1 -->
<svg width="977pt" height="596pt"
 viewBox="0.00 0.00 976.88 596.00" xmlns="http://www.w3.org/2000/svg" xmlns:xlink="http://www.w3.org/1999/xlink">
<g id="graph0" class="graph" transform="scale(1 1) rotate(0) translate(4 592)">
<title>dependency&#45;cruiser output</title>
<polygon fill="white" stroke="none" points="-4,4 -4,-592 972.88,-592 972.88,4 -4,4"/>
<g id="clust1" class="cluster">
<title>cluster_src</title>
<path fill="#ffffff" stroke="black" stroke-width="2" d="M20,-8C20,-8 948.88,-8 948.88,-8 954.88,-8 960.88,-14 960.88,-20 960.88,-20 960.88,-568 960.88,-568 960.88,-574 954.88,-580 948.88,-580 948.88,-580 20,-580 20,-580 14,-580 8,-574 8,-568 8,-568 8,-20 8,-20 8,-14 14,-8 20,-8"/>
<text text-anchor="middle" x="484.44" y="-567.45" font-family="Helvetica,sans-Serif" font-weight="bold" font-size="9.00">src</text>
</g>
<g id="clust2" class="cluster">
<title>cluster_src/Data</title>
<path fill="#ffffff" stroke="black" stroke-width="2" d="M195.62,-76C195.62,-76 854.88,-76 854.88,-76 860.88,-76 866.88,-82 866.88,-88 866.88,-88 866.88,-164 866.88,-164 866.88,-170 860.88,-176 854.88,-176 854.88,-176 195.62,-176 195.62,-176 189.62,-176 183.62,-170 183.62,-164 183.62,-164 183.62,-88 183.62,-88 183.62,-82 189.62,-76 195.62,-76"/>
<text text-anchor="middle" x="525.25" y="-163.45" font-family="Helvetica,sans-Serif" font-weight="bold" font-size="9.00">Data</text>
</g>
<g id="clust3" class="cluster">
<title>cluster_src/Data/DataSource</title>
<path fill="#ffffff" stroke="black" stroke-width="2" d="M549.62,-84C549.62,-84 846.88,-84 846.88,-84 852.88,-84 858.88,-90 858.88,-96 858.88,-96 858.88,-138 858.88,-138 858.88,-144 852.88,-150 846.88,-150 846.88,-150 549.62,-150 549.62,-150 543.62,-150 537.62,-144 537.62,-138 537.62,-138 537.62,-96 537.62,-96 537.62,-90 543.62,-84 549.62,-84"/>
<text text-anchor="middle" x="698.25" y="-137.45" font-family="Helvetica,sans-Serif" font-weight="bold" font-size="9.00">DataSource</text>
</g>
<g id="clust4" class="cluster">
<title>cluster_src/Data/Repository</title>
<path fill="#ffffff" stroke="black" stroke-width="2" d="M283.38,-96C283.38,-96 479.62,-96 479.62,-96 485.62,-96 491.62,-102 491.62,-108 491.62,-108 491.62,-136 491.62,-136 491.62,-142 485.62,-148 479.62,-148 479.62,-148 283.38,-148 283.38,-148 277.38,-148 271.38,-142 271.38,-136 271.38,-136 271.38,-108 271.38,-108 271.38,-102 277.38,-96 283.38,-96"/>
<text text-anchor="middle" x="381.5" y="-135.45" font-family="Helvetica,sans-Serif" font-weight="bold" font-size="9.00">Repository</text>
</g>
<g id="clust5" class="cluster">
<title>cluster_src/Domain</title>
<path fill="#ffffff" stroke="black" stroke-width="2" d="M541.62,-184C541.62,-184 940.88,-184 940.88,-184 946.88,-184 952.88,-190 952.88,-196 952.88,-196 952.88,-362 952.88,-362 952.88,-368 946.88,-374 940.88,-374 940.88,-374 541.62,-374 541.62,-374 535.62,-374 529.62,-368 529.62,-362 529.62,-362 529.62,-196 529.62,-196 529.62,-190 535.62,-184 541.62,-184"/>
<text text-anchor="middle" x="741.25" y="-361.45" font-family="Helvetica,sans-Serif" font-weight="bold" font-size="9.00">Domain</text>
</g>
<g id="clust6" class="cluster">
<title>cluster_src/Domain/Model</title>
<path fill="#ffffff" stroke="black" stroke-width="2" d="M886.88,-221C886.88,-221 932.88,-221 932.88,-221 938.88,-221 944.88,-227 944.88,-233 944.88,-233 944.88,-261 944.88,-261 944.88,-267 938.88,-273 932.88,-273 932.88,-273 886.88,-273 886.88,-273 880.88,-273 874.88,-267 874.88,-261 874.88,-261 874.88,-233 874.88,-233 874.88,-227 880.88,-221 886.88,-221"/>
<text text-anchor="middle" x="909.88" y="-260.45" font-family="Helvetica,sans-Serif" font-weight="bold" font-size="9.00">Model</text>
</g>
<g id="clust7" class="cluster">
<title>cluster_src/Domain/Repository</title>
<path fill="#ffffff" stroke="black" stroke-width="2" d="M791,-296C791,-296 837,-296 837,-296 843,-296 849,-302 849,-308 849,-308 849,-336 849,-336 849,-342 843,-348 837,-348 837,-348 791,-348 791,-348 785,-348 779,-342 779,-336 779,-336 779,-308 779,-308 779,-302 785,-296 791,-296"/>
<text text-anchor="middle" x="814" y="-335.45" font-family="Helvetica,sans-Serif" font-weight="bold" font-size="9.00">Repository</text>
</g>
<g id="clust8" class="cluster">
<title>cluster_src/Domain/UseCase</title>
<path fill="#ffffff" stroke="black" stroke-width="2" d="M549.62,-192C549.62,-192 837,-192 837,-192 843,-192 849,-198 849,-204 849,-204 849,-276 849,-276 849,-282 843,-288 837,-288 837,-288 549.62,-288 549.62,-288 543.62,-288 537.62,-282 537.62,-276 537.62,-276 537.62,-204 537.62,-204 537.62,-198 543.62,-192 549.62,-192"/>
<text text-anchor="middle" x="693.31" y="-275.45" font-family="Helvetica,sans-Serif" font-weight="bold" font-size="9.00">UseCase</text>
</g>
<g id="clust9" class="cluster">
<title>cluster_src/Main</title>
<path fill="#ffffff" stroke="black" stroke-width="2" d="M125.5,-16C125.5,-16 241.62,-16 241.62,-16 247.62,-16 253.62,-22 253.62,-28 253.62,-28 253.62,-56 253.62,-56 253.62,-62 247.62,-68 241.62,-68 241.62,-68 125.5,-68 125.5,-68 119.5,-68 113.5,-62 113.5,-56 113.5,-56 113.5,-28 113.5,-28 113.5,-22 119.5,-16 125.5,-16"/>
<text text-anchor="middle" x="183.56" y="-55.45" font-family="Helvetica,sans-Serif" font-weight="bold" font-size="9.00">Main</text>
</g>
<g id="clust10" class="cluster">
<title>cluster_src/Presentation</title>
<path fill="#ffffff" stroke="black" stroke-width="2" d="M195.62,-382C195.62,-382 608.12,-382 608.12,-382 614.12,-382 620.12,-388 620.12,-394 620.12,-394 620.12,-542 620.12,-542 620.12,-548 614.12,-554 608.12,-554 608.12,-554 195.62,-554 195.62,-554 189.62,-554 183.62,-548 183.62,-542 183.62,-542 183.62,-394 183.62,-394 183.62,-388 189.62,-382 195.62,-382"/>
<text text-anchor="middle" x="401.88" y="-541.45" font-family="Helvetica,sans-Serif" font-weight="bold" font-size="9.00">Presentation</text>
</g>
<g id="clust11" class="cluster">
<title>cluster_src/Presentation/hook</title>
<path fill="#ffffff" stroke="black" stroke-width="2" d="M371.12,-390C371.12,-390 509.62,-390 509.62,-390 515.62,-390 521.62,-396 521.62,-402 521.62,-402 521.62,-430 521.62,-430 521.62,-436 515.62,-442 509.62,-442 509.62,-442 371.12,-442 371.12,-442 365.12,-442 359.12,-436 359.12,-430 359.12,-430 359.12,-402 359.12,-402 359.12,-396 365.12,-390 371.12,-390"/>
<text text-anchor="middle" x="440.38" y="-429.45" font-family="Helvetica,sans-Serif" font-weight="bold" font-size="9.00">hook</text>
</g>
<!-- src/Data/DataSource/DataSource.ts -->
<g id="node1" class="node">
<title>src/Data/DataSource/DataSource.ts</title>
<g id="a_node1"><a xlink:href="src/Data/DataSource/DataSource.ts" xlink:title="DataSource.ts">
<path fill="#ddfeff" stroke="black" d="M844.96,-123.88C844.96,-123.88 783.04,-123.88 783.04,-123.88 780.08,-123.88 777.12,-120.92 777.12,-117.96 777.12,-117.96 777.12,-112.04 777.12,-112.04 777.12,-109.08 780.08,-106.12 783.04,-106.12 783.04,-106.12 844.96,-106.12 844.96,-106.12 847.92,-106.12 850.88,-109.08 850.88,-112.04 850.88,-112.04 850.88,-117.96 850.88,-117.96 850.88,-120.92 847.92,-123.88 844.96,-123.88"/>
<text text-anchor="start" x="785.12" y="-111.33" font-family="Helvetica,sans-Serif" font-size="9.00">DataSource.ts</text>
</a>
</g>
</g>
<!-- src/Domain/Model/index.ts -->
<g id="node2" class="node">
<title>src/Domain/Model/index.ts</title>
<g id="a_node2"><a xlink:href="src/Domain/Model/index.ts" xlink:title="index.ts">
<path fill="#ddfeff" stroke="black" d="M930.96,-246.88C930.96,-246.88 888.79,-246.88 888.79,-246.88 885.83,-246.88 882.88,-243.92 882.88,-240.96 882.88,-240.96 882.88,-235.04 882.88,-235.04 882.88,-232.08 885.83,-229.12 888.79,-229.12 888.79,-229.12 930.96,-229.12 930.96,-229.12 933.92,-229.12 936.88,-232.08 936.88,-235.04 936.88,-235.04 936.88,-240.96 936.88,-240.96 936.88,-243.92 933.92,-246.88 930.96,-246.88"/>
<text text-anchor="start" x="894.12" y="-234.32" font-family="Helvetica,sans-Serif" font-size="9.00">index.ts</text>
</a>
</g>
</g>
<!-- src/Data/DataSource/DataSource.ts&#45;&gt;src/Domain/Model/index.ts -->
<g id="edge1" class="edge">
<title>src/Data/DataSource/DataSource.ts&#45;&gt;src/Domain/Model/index.ts</title>
<path fill="none" stroke="#000000" stroke-width="2" stroke-opacity="0.200000" d="M822.06,-124.24C837.89,-144.99 876.43,-195.48 896.4,-221.66"/>
<polygon fill="#000000" fill-opacity="0.200000" stroke="#000000" stroke-width="2" stroke-opacity="0.200000" points="894.59,-222.75 899.9,-226.24 897.93,-220.2 894.59,-222.75"/>
</g>
<!-- src/Data/DataSource/OnMemoryDataSourceImpl.ts -->
<g id="node3" class="node">
<title>src/Data/DataSource/OnMemoryDataSourceImpl.ts</title>
<g id="a_node3"><a xlink:href="src/Data/DataSource/OnMemoryDataSourceImpl.ts" xlink:title="OnMemoryDataSourceImpl.ts">
<path fill="#ddfeff" stroke="black" d="M758.21,-109.88C758.21,-109.88 634.04,-109.88 634.04,-109.88 631.08,-109.88 628.12,-106.92 628.12,-103.96 628.12,-103.96 628.12,-98.04 628.12,-98.04 628.12,-95.08 631.08,-92.12 634.04,-92.12 634.04,-92.12 758.21,-92.12 758.21,-92.12 761.17,-92.12 764.12,-95.08 764.12,-98.04 764.12,-98.04 764.12,-103.96 764.12,-103.96 764.12,-106.92 761.17,-109.88 758.21,-109.88"/>
<text text-anchor="start" x="636.12" y="-97.33" font-family="Helvetica,sans-Serif" font-size="9.00">OnMemoryDataSourceImpl.ts</text>
</a>
</g>
</g>
<!-- src/Data/DataSource/OnMemoryDataSourceImpl.ts&#45;&gt;src/Data/DataSource/DataSource.ts -->
<g id="edge3" class="edge">
<title>src/Data/DataSource/OnMemoryDataSourceImpl.ts&#45;&gt;src/Data/DataSource/DataSource.ts</title>
<path fill="none" stroke="#000000" stroke-opacity="0.200000" d="M764.53,-109.14C766.23,-109.35 767.92,-109.55 769.59,-109.75"/>
<polygon fill="none" stroke="#000000" stroke-opacity="0.200000" points="769.07,-111.81 775.28,-110.44 769.58,-107.64 769.07,-111.81"/>
</g>
<!-- src/Data/DataSource/OnMemoryDataSourceImpl.ts&#45;&gt;src/Domain/Model/index.ts -->
<g id="edge2" class="edge">
<title>src/Data/DataSource/OnMemoryDataSourceImpl.ts&#45;&gt;src/Domain/Model/index.ts</title>
<path fill="none" stroke="#000000" stroke-opacity="0.200000" d="M724.6,-91.63C760.96,-81.11 825.32,-69.21 866.88,-100 905.48,-128.6 909.81,-191.84 909.56,-221.74"/>
<polygon fill="none" stroke="#000000" stroke-opacity="0.200000" points="907.47,-221.35 909.43,-227.39 911.66,-221.44 907.47,-221.35"/>
</g>
<!-- src/Data/DataSource/index.ts -->
<g id="node4" class="node">
<title>src/Data/DataSource/index.ts</title>
<g id="a_node4"><a xlink:href="src/Data/DataSource/index.ts" xlink:title="index.ts">
<path fill="#ddfeff" stroke="black" d="M593.71,-115.88C593.71,-115.88 551.54,-115.88 551.54,-115.88 548.58,-115.88 545.62,-112.92 545.62,-109.96 545.62,-109.96 545.62,-104.04 545.62,-104.04 545.62,-101.08 548.58,-98.12 551.54,-98.12 551.54,-98.12 593.71,-98.12 593.71,-98.12 596.67,-98.12 599.62,-101.08 599.62,-104.04 599.62,-104.04 599.62,-109.96 599.62,-109.96 599.62,-112.92 596.67,-115.88 593.71,-115.88"/>
<text text-anchor="start" x="556.88" y="-103.33" font-family="Helvetica,sans-Serif" font-size="9.00">index.ts</text>
</a>
</g>
</g>
<!-- src/Data/DataSource/index.ts&#45;&gt;src/Data/DataSource/DataSource.ts -->
<g id="edge4" class="edge">
<title>src/Data/DataSource/index.ts&#45;&gt;src/Data/DataSource/DataSource.ts</title>
<path fill="none" stroke="#000000" stroke-opacity="0.200000" d="M599.85,-112.22C608.78,-113.76 618.85,-115.24 628.12,-116 676.41,-119.96 732.02,-118.9 769.54,-117.37"/>
<polygon fill="none" stroke="#000000" stroke-opacity="0.200000" points="769.38,-119.48 775.28,-117.12 769.2,-115.28 769.38,-119.48"/>
</g>
<!-- src/Data/DataSource/index.ts&#45;&gt;src/Data/DataSource/OnMemoryDataSourceImpl.ts -->
<g id="edge5" class="edge">
<title>src/Data/DataSource/index.ts&#45;&gt;src/Data/DataSource/OnMemoryDataSourceImpl.ts</title>
<path fill="none" stroke="#000000" stroke-width="2" stroke-opacity="0.200000" d="M599.99,-105.7C606.4,-105.38 613.58,-105.03 621.03,-104.66"/>
<polygon fill="#000000" fill-opacity="0.200000" stroke="#000000" stroke-width="2" stroke-opacity="0.200000" points="627.05,-106.46 620.95,-104.66 626.84,-102.27 627.05,-106.46"/>
</g>
<!-- src/Data/Repository/RepositoryImpl.ts -->
<g id="node5" class="node">
<title>src/Data/Repository/RepositoryImpl.ts</title>
<g id="a_node5"><a xlink:href="src/Data/Repository/RepositoryImpl.ts" xlink:title="RepositoryImpl.ts">
<path fill="#ddfeff" stroke="black" d="M477.71,-121.88C477.71,-121.88 403.04,-121.88 403.04,-121.88 400.08,-121.88 397.12,-118.92 397.12,-115.96 397.12,-115.96 397.12,-110.04 397.12,-110.04 397.12,-107.08 400.08,-104.12 403.04,-104.12 403.04,-104.12 477.71,-104.12 477.71,-104.12 480.67,-104.12 483.62,-107.08 483.62,-110.04 483.62,-110.04 483.62,-115.96 483.62,-115.96 483.62,-118.92 480.67,-121.88 477.71,-121.88"/>
<text text-anchor="start" x="405.12" y="-109.33" font-family="Helvetica,sans-Serif" font-size="9.00">RepositoryImpl.ts</text>
</a>
</g>
</g>
<!-- src/Data/Repository/RepositoryImpl.ts&#45;&gt;src/Domain/Model/index.ts -->
<g id="edge6" class="edge">
<title>src/Data/Repository/RepositoryImpl.ts&#45;&gt;src/Domain/Model/index.ts</title>
<path fill="none" stroke="#000000" stroke-opacity="0.200000" d="M460,-103.76C524.29,-73.33 739.95,16.44 866.88,-81 889.34,-98.24 902.4,-184.97 906.99,-221.61"/>
<polygon fill="none" stroke="#000000" stroke-opacity="0.200000" points="904.85,-221.42 907.66,-227.13 909.02,-220.92 904.85,-221.42"/>
</g>
<!-- src/Data/Repository/RepositoryImpl.ts&#45;&gt;src/Data/DataSource/index.ts -->
<g id="edge8" class="edge">
<title>src/Data/Repository/RepositoryImpl.ts&#45;&gt;src/Data/DataSource/index.ts</title>
<path fill="none" stroke="#000000" stroke-opacity="0.200000" d="M484.02,-111.04C501.52,-110.23 521.49,-109.31 537.94,-108.55"/>
<polygon fill="none" stroke="#000000" stroke-opacity="0.200000" points="537.82,-110.66 543.72,-108.29 537.63,-106.46 537.82,-110.66"/>
</g>
<!-- src/Domain/Repository/index.ts -->
<g id="node6" class="node">
<title>src/Domain/Repository/index.ts</title>
<g id="a_node6"><a xlink:href="src/Domain/Repository/index.ts" xlink:title="index.ts">
<path fill="#ddfeff" stroke="black" d="M835.08,-321.88C835.08,-321.88 792.92,-321.88 792.92,-321.88 789.96,-321.88 787,-318.92 787,-315.96 787,-315.96 787,-310.04 787,-310.04 787,-307.08 789.96,-304.12 792.92,-304.12 792.92,-304.12 835.08,-304.12 835.08,-304.12 838.04,-304.12 841,-307.08 841,-310.04 841,-310.04 841,-315.96 841,-315.96 841,-318.92 838.04,-321.88 835.08,-321.88"/>
<text text-anchor="start" x="798.25" y="-309.32" font-family="Helvetica,sans-Serif" font-size="9.00">index.ts</text>
</a>
</g>
</g>
<!-- src/Data/Repository/RepositoryImpl.ts&#45;&gt;src/Domain/Repository/index.ts -->
<g id="edge7" class="edge">
<title>src/Data/Repository/RepositoryImpl.ts&#45;&gt;src/Domain/Repository/index.ts</title>
<path fill="none" stroke="#000000" stroke-opacity="0.200000" d="M458.09,-122.25C475.45,-131.45 503.67,-145.28 529.62,-153 580.16,-168.02 727.32,-151.25 764.12,-189 796.02,-221.73 752.32,-252.62 777.12,-291 779.26,-294.3 782.07,-297.18 785.2,-299.68"/>
<polygon fill="none" stroke="#000000" stroke-opacity="0.200000" points="783.7,-301.19 789.82,-302.9 786.1,-297.75 783.7,-301.19"/>
</g>
<!-- src/Domain/Repository/index.ts&#45;&gt;src/Domain/Model/index.ts -->
<g id="edge12" class="edge">
<title>src/Domain/Repository/index.ts&#45;&gt;src/Domain/Model/index.ts</title>
<path fill="none" stroke="#000000" stroke-opacity="0.200000" d="M841.44,-304.74C850.05,-301.3 859.33,-296.75 866.88,-291 880.46,-280.65 892.17,-264.95 899.74,-253.33"/>
<polygon fill="none" stroke="#000000" stroke-opacity="0.200000" points="901.49,-254.5 902.9,-248.3 897.93,-252.26 901.49,-254.5"/>
</g>
<!-- src/Data/Repository/index.ts -->
<g id="node7" class="node">
<title>src/Data/Repository/index.ts</title>
<g id="a_node7"><a xlink:href="src/Data/Repository/index.ts" xlink:title="index.ts">
<path fill="#ddfeff" stroke="black" d="M327.46,-121.88C327.46,-121.88 285.29,-121.88 285.29,-121.88 282.33,-121.88 279.38,-118.92 279.38,-115.96 279.38,-115.96 279.38,-110.04 279.38,-110.04 279.38,-107.08 282.33,-104.12 285.29,-104.12 285.29,-104.12 327.46,-104.12 327.46,-104.12 330.42,-104.12 333.38,-107.08 333.38,-110.04 333.38,-110.04 333.38,-115.96 333.38,-115.96 333.38,-118.92 330.42,-121.88 327.46,-121.88"/>
<text text-anchor="start" x="290.62" y="-109.33" font-family="Helvetica,sans-Serif" font-size="9.00">index.ts</text>
</a>
</g>
</g>
<!-- src/Data/Repository/index.ts&#45;&gt;src/Data/Repository/RepositoryImpl.ts -->
<g id="edge9" class="edge">
<title>src/Data/Repository/index.ts&#45;&gt;src/Data/Repository/RepositoryImpl.ts</title>
<path fill="none" stroke="#000000" stroke-width="2" stroke-opacity="0.200000" d="M333.77,-113C349.71,-113 370.55,-113 389.5,-113"/>
<polygon fill="#000000" fill-opacity="0.200000" stroke="#000000" stroke-width="2" stroke-opacity="0.200000" points="395.66,-115.1 389.66,-113 395.66,-110.9 395.66,-115.1"/>
</g>
<!-- src/Data/index.ts -->
<g id="node8" class="node">
<title>src/Data/index.ts</title>
<g id="a_node8"><a xlink:href="src/Data/index.ts" xlink:title="index.ts">
<path fill="#ddfeff" stroke="black" d="M239.71,-101.88C239.71,-101.88 197.54,-101.88 197.54,-101.88 194.58,-101.88 191.62,-98.92 191.62,-95.96 191.62,-95.96 191.62,-90.04 191.62,-90.04 191.62,-87.08 194.58,-84.12 197.54,-84.12 197.54,-84.12 239.71,-84.12 239.71,-84.12 242.67,-84.12 245.62,-87.08 245.62,-90.04 245.62,-90.04 245.62,-95.96 245.62,-95.96 245.62,-98.92 242.67,-101.88 239.71,-101.88"/>
<text text-anchor="start" x="202.88" y="-89.33" font-family="Helvetica,sans-Serif" font-size="9.00">index.ts</text>
</a>
</g>
</g>
<!-- src/Data/index.ts&#45;&gt;src/Data/DataSource/index.ts -->
<g id="edge10" class="edge">
<title>src/Data/index.ts&#45;&gt;src/Data/DataSource/index.ts</title>
<path fill="none" stroke="#000000" stroke-width="2" stroke-opacity="0.200000" d="M246.05,-90.6C298.76,-86.33 420.6,-79.12 521.62,-93 527.09,-93.75 532.8,-94.94 538.32,-96.32"/>
<polygon fill="#000000" fill-opacity="0.200000" stroke="#000000" stroke-width="2" stroke-opacity="0.200000" points="543.68,-99.92 538.42,-96.35 544.76,-95.86 543.68,-99.92"/>
</g>
<!-- src/Data/index.ts&#45;&gt;src/Data/Repository/index.ts -->
<g id="edge11" class="edge">
<title>src/Data/index.ts&#45;&gt;src/Data/Repository/index.ts</title>
<path fill="none" stroke="#000000" stroke-width="2" stroke-opacity="0.200000" d="M245.82,-99.11C254.14,-101.05 263.44,-103.22 272.19,-105.26"/>
<polygon fill="#000000" fill-opacity="0.200000" stroke="#000000" stroke-width="2" stroke-opacity="0.200000" points="277.6,-108.68 272.23,-105.27 278.55,-104.59 277.6,-108.68"/>
</g>
<!-- src/Domain/UseCase/ClickOnBoardUseCase.ts -->
<g id="node9" class="node">
<title>src/Domain/UseCase/ClickOnBoardUseCase.ts</title>
<g id="a_node9"><a xlink:href="src/Domain/UseCase/ClickOnBoardUseCase.ts" xlink:title="ClickOnBoardUseCase.ts">
<path fill="#ddfeff" stroke="black" d="M750.33,-231.88C750.33,-231.88 641.92,-231.88 641.92,-231.88 638.96,-231.88 636,-228.92 636,-225.96 636,-225.96 636,-220.04 636,-220.04 636,-217.08 638.96,-214.12 641.92,-214.12 641.92,-214.12 750.33,-214.12 750.33,-214.12 753.29,-214.12 756.25,-217.08 756.25,-220.04 756.25,-220.04 756.25,-225.96 756.25,-225.96 756.25,-228.92 753.29,-231.88 750.33,-231.88"/>
<text text-anchor="start" x="644" y="-219.32" font-family="Helvetica,sans-Serif" font-size="9.00">ClickOnBoardUseCase.ts</text>
</a>
</g>
</g>
<!-- src/Domain/UseCase/ClickOnBoardUseCase.ts&#45;&gt;src/Domain/Model/index.ts -->
<g id="edge13" class="edge">
<title>src/Domain/UseCase/ClickOnBoardUseCase.ts&#45;&gt;src/Domain/Model/index.ts</title>
<path fill="none" stroke="#000000" stroke-opacity="0.200000" d="M756.51,-229.25C763.46,-229.89 770.44,-230.49 777.12,-231 810.53,-233.56 848.76,-235.48 875.41,-236.65"/>
<polygon fill="none" stroke="#000000" stroke-opacity="0.200000" points="875.01,-238.74 881.09,-236.9 875.19,-234.54 875.01,-238.74"/>
</g>
<!-- src/Domain/UseCase/ClickOnBoardUseCase.ts&#45;&gt;src/Domain/Repository/index.ts -->
<g id="edge14" class="edge">
<title>src/Domain/UseCase/ClickOnBoardUseCase.ts&#45;&gt;src/Domain/Repository/index.ts</title>
<path fill="none" stroke="#000000" stroke-opacity="0.200000" d="M756.53,-232.13C759.27,-233.8 761.83,-235.75 764.12,-238 781.45,-254.98 762.82,-271.41 777.12,-291 779.49,-294.25 782.5,-297.11 785.76,-299.61"/>
<polygon fill="none" stroke="#000000" stroke-opacity="0.200000" points="784.43,-301.24 790.57,-302.87 786.78,-297.77 784.43,-301.24"/>
</g>
<!-- src/Domain/UseCase/Util.ts -->
<g id="node10" class="node">
<title>src/Domain/UseCase/Util.ts</title>
<g id="a_node10"><a xlink:href="src/Domain/UseCase/Util.ts" xlink:title="Util.ts">
<path fill="#ddfeff" stroke="black" d="M835.08,-224.88C835.08,-224.88 792.92,-224.88 792.92,-224.88 789.96,-224.88 787,-221.92 787,-218.96 787,-218.96 787,-213.04 787,-213.04 787,-210.08 789.96,-207.12 792.92,-207.12 792.92,-207.12 835.08,-207.12 835.08,-207.12 838.04,-207.12 841,-210.08 841,-213.04 841,-213.04 841,-218.96 841,-218.96 841,-221.92 838.04,-224.88 835.08,-224.88"/>
<text text-anchor="start" x="802.75" y="-212.32" font-family="Helvetica,sans-Serif" font-size="9.00">Util.ts</text>
</a>
</g>
</g>
<!-- src/Domain/UseCase/ClickOnBoardUseCase.ts&#45;&gt;src/Domain/UseCase/Util.ts -->
<g id="edge15" class="edge">
<title>src/Domain/UseCase/ClickOnBoardUseCase.ts&#45;&gt;src/Domain/UseCase/Util.ts</title>
<path fill="none" stroke="#000000" stroke-width="2" stroke-opacity="0.200000" d="M756.42,-219.42C763.69,-218.98 770.94,-218.54 777.7,-218.13"/>
<polygon fill="#000000" fill-opacity="0.200000" stroke="#000000" stroke-width="2" stroke-opacity="0.200000" points="777.68,-220.24 783.54,-217.78 777.43,-216.05 777.68,-220.24"/>
</g>
<!-- src/Domain/UseCase/Util.ts&#45;&gt;src/Domain/Model/index.ts -->
<g id="edge17" class="edge">
<title>src/Domain/UseCase/Util.ts&#45;&gt;src/Domain/Model/index.ts</title>
<path fill="none" stroke="#000000" stroke-width="2" stroke-opacity="0.200000" d="M841.4,-222.19C851.48,-224.55 863.14,-227.28 873.9,-229.8"/>
<polygon fill="#000000" fill-opacity="0.200000" stroke="#000000" stroke-width="2" stroke-opacity="0.200000" points="873.41,-231.84 879.73,-231.17 874.36,-227.76 873.41,-231.84"/>
</g>
<!-- src/Domain/UseCase/JumpToStepUseCase.ts -->
<g id="node11" class="node">
<title>src/Domain/UseCase/JumpToStepUseCase.ts</title>
<g id="a_node11"><a xlink:href="src/Domain/UseCase/JumpToStepUseCase.ts" xlink:title="JumpToStepUseCase.ts">
<path fill="#ddfeff" stroke="black" d="M747.33,-261.88C747.33,-261.88 644.92,-261.88 644.92,-261.88 641.96,-261.88 639,-258.92 639,-255.96 639,-255.96 639,-250.04 639,-250.04 639,-247.08 641.96,-244.12 644.92,-244.12 644.92,-244.12 747.33,-244.12 747.33,-244.12 750.29,-244.12 753.25,-247.08 753.25,-250.04 753.25,-250.04 753.25,-255.96 753.25,-255.96 753.25,-258.92 750.29,-261.88 747.33,-261.88"/>
<text text-anchor="start" x="647" y="-249.32" font-family="Helvetica,sans-Serif" font-size="9.00">JumpToStepUseCase.ts</text>
</a>
</g>
</g>
<!-- src/Domain/UseCase/JumpToStepUseCase.ts&#45;&gt;src/Domain/Repository/index.ts -->
<g id="edge16" class="edge">
<title>src/Domain/UseCase/JumpToStepUseCase.ts&#45;&gt;src/Domain/Repository/index.ts</title>
<path fill="none" stroke="#000000" stroke-opacity="0.200000" d="M715.23,-262.38C734.96,-272.59 766.63,-288.99 788.55,-300.34"/>
<polygon fill="none" stroke="#000000" stroke-opacity="0.200000" points="787.38,-302.1 793.68,-302.99 789.32,-298.37 787.38,-302.1"/>
</g>
<!-- src/Domain/UseCase/index.ts -->
<g id="node12" class="node">
<title>src/Domain/UseCase/index.ts</title>
<g id="a_node12"><a xlink:href="src/Domain/UseCase/index.ts" xlink:title="index.ts">
<path fill="#ddfeff" stroke="black" d="M593.71,-261.88C593.71,-261.88 551.54,-261.88 551.54,-261.88 548.58,-261.88 545.62,-258.92 545.62,-255.96 545.62,-255.96 545.62,-250.04 545.62,-250.04 545.62,-247.08 548.58,-244.12 551.54,-244.12 551.54,-244.12 593.71,-244.12 593.71,-244.12 596.67,-244.12 599.62,-247.08 599.62,-250.04 599.62,-250.04 599.62,-255.96 599.62,-255.96 599.62,-258.92 596.67,-261.88 593.71,-261.88"/>
<text text-anchor="start" x="556.88" y="-249.32" font-family="Helvetica,sans-Serif" font-size="9.00">index.ts</text>
</a>
</g>
</g>
<!-- src/Domain/UseCase/index.ts&#45;&gt;src/Domain/UseCase/ClickOnBoardUseCase.ts -->
<g id="edge18" class="edge">
<title>src/Domain/UseCase/index.ts&#45;&gt;src/Domain/UseCase/ClickOnBoardUseCase.ts</title>
<path fill="none" stroke="#000000" stroke-width="2" stroke-opacity="0.200000" d="M599.89,-245.49C608.83,-243.01 618.89,-240.3 628.12,-238 633.69,-236.61 639.54,-235.21 645.36,-233.86"/>
<polygon fill="#000000" fill-opacity="0.200000" stroke="#000000" stroke-width="2" stroke-opacity="0.200000" points="651.66,-234.57 645.34,-233.87 650.72,-230.47 651.66,-234.57"/>
</g>
<!-- src/Domain/UseCase/index.ts&#45;&gt;src/Domain/UseCase/Util.ts -->
<g id="edge20" class="edge">
<title>src/Domain/UseCase/index.ts&#45;&gt;src/Domain/UseCase/Util.ts</title>
<path fill="none" stroke="#000000" stroke-width="2" stroke-opacity="0.200000" d="M580.96,-243.95C590.49,-233 608.26,-215.14 628.12,-208 678.64,-189.84 741.98,-198.8 779.88,-207.21"/>
<polygon fill="#000000" fill-opacity="0.200000" stroke="#000000" stroke-width="2" stroke-opacity="0.200000" points="785.2,-210.59 779.83,-207.19 786.14,-206.49 785.2,-210.59"/>
</g>
<!-- src/Domain/UseCase/index.ts&#45;&gt;src/Domain/UseCase/JumpToStepUseCase.ts -->
<g id="edge19" class="edge">
<title>src/Domain/UseCase/index.ts&#45;&gt;src/Domain/UseCase/JumpToStepUseCase.ts</title>
<path fill="none" stroke="#000000" stroke-width="2" stroke-opacity="0.200000" d="M599.99,-253C609.47,-253 620.61,-253 631.87,-253"/>
<polygon fill="#000000" fill-opacity="0.200000" stroke="#000000" stroke-width="2" stroke-opacity="0.200000" points="637.88,-255.1 631.88,-253 637.88,-250.9 637.88,-255.1"/>
</g>
<!-- src/Main/App.css -->
<g id="node13" class="node">
<title>src/Main/App.css</title>
<g id="a_node13"><a xlink:href="src/Main/App.css" xlink:title="App.css">
<path fill="#ffffcc" stroke="black" d="M239.71,-41.88C239.71,-41.88 197.54,-41.88 197.54,-41.88 194.58,-41.88 191.62,-38.92 191.62,-35.96 191.62,-35.96 191.62,-30.04 191.62,-30.04 191.62,-27.08 194.58,-24.12 197.54,-24.12 197.54,-24.12 239.71,-24.12 239.71,-24.12 242.67,-24.12 245.62,-27.08 245.62,-30.04 245.62,-30.04 245.62,-35.96 245.62,-35.96 245.62,-38.92 242.67,-41.88 239.71,-41.88"/>
<text text-anchor="start" x="202.5" y="-29.32" font-family="Helvetica,sans-Serif" font-size="9.00">App.css</text>
</a>
</g>
</g>
<!-- src/Main/App.tsx -->
<g id="node14" class="node">
<title>src/Main/App.tsx</title>
<g id="a_node14"><a xlink:href="src/Main/App.tsx" xlink:title="App.tsx">
<path fill="#bbfeff" stroke="black" d="M169.58,-41.88C169.58,-41.88 127.42,-41.88 127.42,-41.88 124.46,-41.88 121.5,-38.92 121.5,-35.96 121.5,-35.96 121.5,-30.04 121.5,-30.04 121.5,-27.08 124.46,-24.12 127.42,-24.12 127.42,-24.12 169.58,-24.12 169.58,-24.12 172.54,-24.12 175.5,-27.08 175.5,-30.04 175.5,-30.04 175.5,-35.96 175.5,-35.96 175.5,-38.92 172.54,-41.88 169.58,-41.88"/>
<text text-anchor="start" x="133.5" y="-29.32" font-family="Helvetica,sans-Serif" font-size="9.00">App.tsx</text>
</a>
</g>
</g>
<!-- src/Main/App.tsx&#45;&gt;src/Data/index.ts -->
<g id="edge21" class="edge">
<title>src/Main/App.tsx&#45;&gt;src/Data/index.ts</title>
<path fill="none" stroke="#000000" stroke-width="2" stroke-opacity="0.200000" d="M171.59,-42.24C173.07,-43.36 174.44,-44.62 175.62,-46 183.22,-54.85 176.54,-61.73 183.62,-71 185.84,-73.89 188.54,-76.51 191.45,-78.85"/>
<polygon fill="#000000" fill-opacity="0.200000" stroke="#000000" stroke-width="2" stroke-opacity="0.200000" points="189.89,-80.32 196.01,-82.06 192.31,-76.89 189.89,-80.32"/>
</g>
<!-- src/Main/App.tsx&#45;&gt;src/Main/App.css -->
<g id="edge23" class="edge">
<title>src/Main/App.tsx&#45;&gt;src/Main/App.css</title>
<path fill="none" stroke="#000000" stroke-width="2" stroke-opacity="0.200000" d="M175.64,-33C177.88,-33 180.16,-33 182.44,-33"/>
<polygon fill="#000000" fill-opacity="0.200000" stroke="#000000" stroke-width="2" stroke-opacity="0.200000" points="182.19,-35.1 188.19,-33 182.19,-30.9 182.19,-35.1"/>
</g>
<!-- src/Presentation/index.ts -->
<g id="node15" class="node">
<title>src/Presentation/index.ts</title>
<g id="a_node15"><a xlink:href="src/Presentation/index.ts" xlink:title="index.ts">
<path fill="#ddfeff" stroke="black" d="M239.71,-411.88C239.71,-411.88 197.54,-411.88 197.54,-411.88 194.58,-411.88 191.62,-408.92 191.62,-405.96 191.62,-405.96 191.62,-400.04 191.62,-400.04 191.62,-397.08 194.58,-394.12 197.54,-394.12 197.54,-394.12 239.71,-394.12 239.71,-394.12 242.67,-394.12 245.62,-397.08 245.62,-400.04 245.62,-400.04 245.62,-405.96 245.62,-405.96 245.62,-408.92 242.67,-411.88 239.71,-411.88"/>
<text text-anchor="start" x="202.88" y="-399.32" font-family="Helvetica,sans-Serif" font-size="9.00">index.ts</text>
</a>
</g>
</g>
<!-- src/Main/App.tsx&#45;&gt;src/Presentation/index.ts -->
<g id="edge22" class="edge">
<title>src/Main/App.tsx&#45;&gt;src/Presentation/index.ts</title>
<path fill="none" stroke="#000000" stroke-width="2" stroke-opacity="0.200000" d="M172.45,-42.34C173.65,-43.43 174.73,-44.65 175.62,-46 183.79,-58.35 182.07,-164.28 183.62,-179 191.79,-256.17 207.56,-347.43 214.37,-385.23"/>
<polygon fill="#000000" fill-opacity="0.200000" stroke="#000000" stroke-width="2" stroke-opacity="0.200000" points="212.22,-385.14 215.35,-390.67 216.35,-384.39 212.22,-385.14"/>
</g>
<!-- src/Presentation/TicTacToeView.tsx -->
<g id="node20" class="node">
<title>src/Presentation/TicTacToeView.tsx</title>
<g id="a_node20"><a xlink:href="src/Presentation/TicTacToeView.tsx" xlink:title="TicTacToeView.tsx">
<path fill="#bbfeff" stroke="black" d="M345.21,-415.88C345.21,-415.88 267.54,-415.88 267.54,-415.88 264.58,-415.88 261.62,-412.92 261.62,-409.96 261.62,-409.96 261.62,-404.04 261.62,-404.04 261.62,-401.08 264.58,-398.12 267.54,-398.12 267.54,-398.12 345.21,-398.12 345.21,-398.12 348.17,-398.12 351.12,-401.08 351.12,-404.04 351.12,-404.04 351.12,-409.96 351.12,-409.96 351.12,-412.92 348.17,-415.88 345.21,-415.88"/>
<text text-anchor="start" x="269.62" y="-403.32" font-family="Helvetica,sans-Serif" font-size="9.00">TicTacToeView.tsx</text>
</a>
</g>
</g>
<!-- src/Presentation/index.ts&#45;&gt;src/Presentation/TicTacToeView.tsx -->
<g id="edge36" class="edge">
<title>src/Presentation/index.ts&#45;&gt;src/Presentation/TicTacToeView.tsx</title>
<path fill="none" stroke="#000000" stroke-width="2" stroke-opacity="0.200000" d="M245.82,-404.22C248.59,-404.35 251.47,-404.49 254.4,-404.62"/>
<polygon fill="#000000" fill-opacity="0.200000" stroke="#000000" stroke-width="2" stroke-opacity="0.200000" points="260.22,-407 254.32,-404.62 260.41,-402.8 260.22,-407"/>
</g>
<!-- src/Presentation/BoardView.tsx -->
<g id="node16" class="node">
<title>src/Presentation/BoardView.tsx</title>
<g id="a_node16"><a xlink:href="src/Presentation/BoardView.tsx" xlink:title="BoardView.tsx">
<path fill="#bbfeff" stroke="black" d="M471.33,-497.88C471.33,-497.88 409.42,-497.88 409.42,-497.88 406.46,-497.88 403.5,-494.92 403.5,-491.96 403.5,-491.96 403.5,-486.04 403.5,-486.04 403.5,-483.08 406.46,-480.12 409.42,-480.12 409.42,-480.12 471.33,-480.12 471.33,-480.12 474.29,-480.12 477.25,-483.08 477.25,-486.04 477.25,-486.04 477.25,-491.96 477.25,-491.96 477.25,-494.92 474.29,-497.88 471.33,-497.88"/>
<text text-anchor="start" x="411.5" y="-485.32" font-family="Helvetica,sans-Serif" font-size="9.00">BoardView.tsx</text>
</a>
</g>
</g>
<!-- src/Presentation/BoardView.tsx&#45;&gt;src/Domain/Model/index.ts -->
<g id="edge24" class="edge">
<title>src/Presentation/BoardView.tsx&#45;&gt;src/Domain/Model/index.ts</title>
<path fill="none" stroke="#000000" stroke-opacity="0.200000" d="M477.6,-493.66C560.32,-502.05 763.9,-509.59 866.88,-398 904.58,-357.14 909.28,-286.58 909.33,-254.6"/>
<polygon fill="none" stroke="#000000" stroke-opacity="0.200000" points="911.43,-254.84 909.27,-248.86 907.23,-254.88 911.43,-254.84"/>
</g>
<!-- src/Presentation/SquareView.tsx -->
<g id="node17" class="node">
<title>src/Presentation/SquareView.tsx</title>
<g id="a_node17"><a xlink:href="src/Presentation/SquareView.tsx" xlink:title="SquareView.tsx">
<path fill="#bbfeff" stroke="black" d="M606.21,-441.88C606.21,-441.88 539.04,-441.88 539.04,-441.88 536.08,-441.88 533.12,-438.92 533.12,-435.96 533.12,-435.96 533.12,-430.04 533.12,-430.04 533.12,-427.08 536.08,-424.12 539.04,-424.12 539.04,-424.12 606.21,-424.12 606.21,-424.12 609.17,-424.12 612.12,-427.08 612.12,-430.04 612.12,-430.04 612.12,-435.96 612.12,-435.96 612.12,-438.92 609.17,-441.88 606.21,-441.88"/>
<text text-anchor="start" x="541.12" y="-429.32" font-family="Helvetica,sans-Serif" font-size="9.00">SquareView.tsx</text>
</a>
</g>
</g>
<!-- src/Presentation/BoardView.tsx&#45;&gt;src/Presentation/SquareView.tsx -->
<g id="edge25" class="edge">
<title>src/Presentation/BoardView.tsx&#45;&gt;src/Presentation/SquareView.tsx</title>
<path fill="none" stroke="#000000" stroke-width="2" stroke-opacity="0.200000" d="M477.71,-486.12C491.91,-484 508.01,-480.34 521.62,-474 523.53,-473.11 540.34,-459.21 553.95,-447.84"/>
<polygon fill="#000000" fill-opacity="0.200000" stroke="#000000" stroke-width="2" stroke-opacity="0.200000" points="555.11,-449.61 558.36,-444.15 552.41,-446.39 555.11,-449.61"/>
</g>
<!-- src/Presentation/SquareView.tsx&#45;&gt;src/Domain/Model/index.ts -->
<g id="edge26" class="edge">
<title>src/Presentation/SquareView.tsx&#45;&gt;src/Domain/Model/index.ts</title>
<path fill="none" stroke="#000000" stroke-opacity="0.200000" d="M612.58,-436.27C674.5,-439.24 795.66,-435.59 866.88,-371 900.67,-340.35 907.47,-282.78 908.7,-254.51"/>
<polygon fill="none" stroke="#000000" stroke-opacity="0.200000" points="910.8,-254.62 908.88,-248.56 906.6,-254.5 910.8,-254.62"/>
</g>
<!-- src/Presentation/JumpToStepButtons.tsx -->
<g id="node18" class="node">
<title>src/Presentation/JumpToStepButtons.tsx</title>
<g id="a_node18"><a xlink:href="src/Presentation/JumpToStepButtons.tsx" xlink:title="JumpToStepButtons.tsx">
<path fill="#bbfeff" stroke="black" d="M490.08,-527.88C490.08,-527.88 390.67,-527.88 390.67,-527.88 387.71,-527.88 384.75,-524.92 384.75,-521.96 384.75,-521.96 384.75,-516.04 384.75,-516.04 384.75,-513.08 387.71,-510.12 390.67,-510.12 390.67,-510.12 490.08,-510.12 490.08,-510.12 493.04,-510.12 496,-513.08 496,-516.04 496,-516.04 496,-521.96 496,-521.96 496,-524.92 493.04,-527.88 490.08,-527.88"/>
<text text-anchor="start" x="392.75" y="-515.33" font-family="Helvetica,sans-Serif" font-size="9.00">JumpToStepButtons.tsx</text>
</a>
</g>
</g>
<!-- src/Presentation/StatusView.tsx -->
<g id="node19" class="node">
<title>src/Presentation/StatusView.tsx</title>
<g id="a_node19"><a xlink:href="src/Presentation/StatusView.tsx" xlink:title="StatusView.tsx">
<path fill="#bbfeff" stroke="black" d="M471.71,-467.88C471.71,-467.88 409.04,-467.88 409.04,-467.88 406.08,-467.88 403.12,-464.92 403.12,-461.96 403.12,-461.96 403.12,-456.04 403.12,-456.04 403.12,-453.08 406.08,-450.12 409.04,-450.12 409.04,-450.12 471.71,-450.12 471.71,-450.12 474.67,-450.12 477.62,-453.08 477.62,-456.04 477.62,-456.04 477.62,-461.96 477.62,-461.96 477.62,-464.92 474.67,-467.88 471.71,-467.88"/>
<text text-anchor="start" x="411.12" y="-455.32" font-family="Helvetica,sans-Serif" font-size="9.00">StatusView.tsx</text>
</a>
</g>
</g>
<!-- src/Presentation/StatusView.tsx&#45;&gt;src/Domain/Model/index.ts -->
<g id="edge27" class="edge">
<title>src/Presentation/StatusView.tsx&#45;&gt;src/Domain/Model/index.ts</title>
<path fill="none" stroke="#000000" stroke-opacity="0.200000" d="M477.76,-460.7C492.96,-459.53 509.8,-455.54 521.62,-445 530.97,-436.67 520.38,-426.43 529.62,-418 543.74,-405.13 852.33,-363.39 866.88,-351 895.92,-326.26 904.89,-279.47 907.66,-254.56"/>
<polygon fill="none" stroke="#000000" stroke-opacity="0.200000" points="909.73,-254.98 908.21,-248.81 905.55,-254.58 909.73,-254.98"/>
</g>
<!-- src/Presentation/TicTacToeView.tsx&#45;&gt;src/Domain/Repository/index.ts -->
<g id="edge28" class="edge">
<title>src/Presentation/TicTacToeView.tsx&#45;&gt;src/Domain/Repository/index.ts</title>
<path fill="none" stroke="#000000" stroke-opacity="0.200000" d="M330.13,-397.64C339.09,-394.1 349.52,-390.17 359.12,-387 475.44,-348.6 506.29,-339.64 628.12,-327 680.95,-321.52 742.48,-317.29 779.55,-314.97"/>
<polygon fill="none" stroke="#000000" stroke-opacity="0.200000" points="779.26,-317.09 785.12,-314.63 779,-312.9 779.26,-317.09"/>
</g>
<!-- src/Presentation/TicTacToeView.tsx&#45;&gt;src/Domain/UseCase/index.ts -->
<g id="edge29" class="edge">
<title>src/Presentation/TicTacToeView.tsx&#45;&gt;src/Domain/UseCase/index.ts</title>
<path fill="none" stroke="#000000" stroke-width="2" stroke-opacity="0.200000" d="M310.23,-397.66C316.25,-379.55 331.96,-339.55 359.12,-318 411.73,-276.29 491,-261.25 536.38,-255.89"/>
<polygon fill="#000000" fill-opacity="0.200000" stroke="#000000" stroke-width="2" stroke-opacity="0.200000" points="536.52,-257.99 542.25,-255.25 536.06,-253.82 536.52,-257.99"/>
</g>
<!-- src/Presentation/TicTacToeView.tsx&#45;&gt;src/Presentation/BoardView.tsx -->
<g id="edge30" class="edge">
<title>src/Presentation/TicTacToeView.tsx&#45;&gt;src/Presentation/BoardView.tsx</title>
<path fill="none" stroke="#000000" stroke-width="2" stroke-opacity="0.200000" d="M311.64,-416.09C319.05,-430.83 335.8,-459.74 359.12,-474 369.63,-480.43 382.25,-484.22 394.34,-486.42"/>
<polygon fill="#000000" fill-opacity="0.200000" stroke="#000000" stroke-width="2" stroke-opacity="0.200000" points="393.77,-488.46 400.02,-487.3 394.42,-484.31 393.77,-488.46"/>
</g>
<!-- src/Presentation/TicTacToeView.tsx&#45;&gt;src/Presentation/JumpToStepButtons.tsx -->
<g id="edge32" class="edge">
<title>src/Presentation/TicTacToeView.tsx&#45;&gt;src/Presentation/JumpToStepButtons.tsx</title>
<path fill="none" stroke="#000000" stroke-width="2" stroke-opacity="0.200000" d="M309.45,-416.24C314.36,-435.85 328.65,-481.65 359.12,-504 364.23,-507.75 370,-510.64 376.05,-512.87"/>
<polygon fill="#000000" fill-opacity="0.200000" stroke="#000000" stroke-width="2" stroke-opacity="0.200000" points="375.18,-514.8 381.54,-514.6 376.45,-510.79 375.18,-514.8"/>
</g>
<!-- src/Presentation/TicTacToeView.tsx&#45;&gt;src/Presentation/StatusView.tsx -->
<g id="edge33" class="edge">
<title>src/Presentation/TicTacToeView.tsx&#45;&gt;src/Presentation/StatusView.tsx</title>
<path fill="none" stroke="#000000" stroke-width="2" stroke-opacity="0.200000" d="M316.83,-416.07C326.61,-424.91 342.72,-438.01 359.12,-445 370.01,-449.64 382.35,-452.74 394.04,-454.82"/>
<polygon fill="#000000" fill-opacity="0.200000" stroke="#000000" stroke-width="2" stroke-opacity="0.200000" points="393.56,-456.87 399.82,-455.74 394.22,-452.72 393.56,-456.87"/>
</g>
<!-- src/Presentation/hook/useTicTacToeModelController.ts -->
<g id="node21" class="node">
<title>src/Presentation/hook/useTicTacToeModelController.ts</title>
<g id="a_node21"><a xlink:href="src/Presentation/hook/useTicTacToeModelController.ts" xlink:title="useTicTacToeModelController.ts">
<path fill="#ddfeff" stroke="black" d="M507.71,-415.88C507.71,-415.88 373.04,-415.88 373.04,-415.88 370.08,-415.88 367.12,-412.92 367.12,-409.96 367.12,-409.96 367.12,-404.04 367.12,-404.04 367.12,-401.08 370.08,-398.12 373.04,-398.12 373.04,-398.12 507.71,-398.12 507.71,-398.12 510.67,-398.12 513.62,-401.08 513.62,-404.04 513.62,-404.04 513.62,-409.96 513.62,-409.96 513.62,-412.92 510.67,-415.88 507.71,-415.88"/>
<text text-anchor="start" x="375.12" y="-403.32" font-family="Helvetica,sans-Serif" font-size="9.00">useTicTacToeModelController.ts</text>
</a>
</g>
</g>
<!-- src/Presentation/TicTacToeView.tsx&#45;&gt;src/Presentation/hook/useTicTacToeModelController.ts -->
<g id="edge31" class="edge">
<title>src/Presentation/TicTacToeView.tsx&#45;&gt;src/Presentation/hook/useTicTacToeModelController.ts</title>
<path fill="none" stroke="#000000" stroke-width="2" stroke-opacity="0.200000" d="M351.33,-407C353.56,-407 355.83,-407 358.12,-407"/>
<polygon fill="#000000" fill-opacity="0.200000" stroke="#000000" stroke-width="2" stroke-opacity="0.200000" points="358.05,-409.1 364.05,-407 358.05,-404.9 358.05,-409.1"/>
</g>
<!-- src/Presentation/hook/useTicTacToeModelController.ts&#45;&gt;src/Domain/Repository/index.ts -->
<g id="edge34" class="edge">
<title>src/Presentation/hook/useTicTacToeModelController.ts&#45;&gt;src/Domain/Repository/index.ts</title>
<path fill="none" stroke="#000000" stroke-opacity="0.200000" d="M456.39,-397.72C473.49,-387.59 502.56,-371.66 529.62,-363 630.12,-330.86 660.89,-347.81 764.12,-326 769.2,-324.93 774.54,-323.66 779.75,-322.34"/>
<polygon fill="none" stroke="#000000" stroke-opacity="0.200000" points="780,-324.44 785.28,-320.9 778.94,-320.38 780,-324.44"/>
</g>
<!-- src/Presentation/hook/useTicTacToeModelController.ts&#45;&gt;src/Domain/UseCase/index.ts -->
<g id="edge35" class="edge">
<title>src/Presentation/hook/useTicTacToeModelController.ts&#45;&gt;src/Domain/UseCase/index.ts</title>
<path fill="none" stroke="#000000" stroke-width="2" stroke-opacity="0.200000" d="M449.13,-397.83C470.62,-372.42 531.1,-300.91 558.2,-268.87"/>
<polygon fill="#000000" fill-opacity="0.200000" stroke="#000000" stroke-width="2" stroke-opacity="0.200000" points="559.52,-270.57 561.79,-264.63 556.31,-267.86 559.52,-270.57"/>
</g>
<!-- src/index.css -->
<g id="node22" class="node">
<title>src/index.css</title>
<g id="a_node22"><a xlink:href="src/index.css" xlink:title="index.css">
<path fill="#ffffcc" stroke="black" d="M169.71,-93.88C169.71,-93.88 127.29,-93.88 127.29,-93.88 124.33,-93.88 121.38,-90.92 121.38,-87.96 121.38,-87.96 121.38,-82.04 121.38,-82.04 121.38,-79.08 124.33,-76.12 127.29,-76.12 127.29,-76.12 169.71,-76.12 169.71,-76.12 172.67,-76.12 175.62,-79.08 175.62,-82.04 175.62,-82.04 175.62,-87.96 175.62,-87.96 175.62,-90.92 172.67,-93.88 169.71,-93.88"/>
<text text-anchor="start" x="129.38" y="-81.33" font-family="Helvetica,sans-Serif" font-size="9.00">index.css</text>
</a>
</g>
</g>
<!-- src/index.tsx -->
<g id="node23" class="node">
<title>src/index.tsx</title>
<g id="a_node23"><a xlink:href="src/index.tsx" xlink:title="index.tsx">
<path fill="#bbfeff" stroke="black" d="M81.83,-67.88C81.83,-67.88 39.67,-67.88 39.67,-67.88 36.71,-67.88 33.75,-64.92 33.75,-61.96 33.75,-61.96 33.75,-56.04 33.75,-56.04 33.75,-53.08 36.71,-50.12 39.67,-50.12 39.67,-50.12 81.83,-50.12 81.83,-50.12 84.79,-50.12 87.75,-53.08 87.75,-56.04 87.75,-56.04 87.75,-61.96 87.75,-61.96 87.75,-64.92 84.79,-67.88 81.83,-67.88"/>
<text text-anchor="start" x="42.75" y="-55.33" font-family="Helvetica,sans-Serif" font-size="9.00">index.tsx</text>
</a>
</g>
</g>
<!-- src/index.tsx&#45;&gt;src/Main/App.tsx -->
<g id="edge38" class="edge">
<title>src/index.tsx&#45;&gt;src/Main/App.tsx</title>
<path fill="none" stroke="#000000" stroke-width="2" stroke-opacity="0.200000" d="M87.94,-51.06C95.77,-48.69 104.47,-46.05 112.75,-43.54"/>
<polygon fill="#000000" fill-opacity="0.200000" stroke="#000000" stroke-width="2" stroke-opacity="0.200000" points="113.14,-45.61 118.27,-41.86 111.92,-41.59 113.14,-45.61"/>
</g>
<!-- src/index.tsx&#45;&gt;src/index.css -->
<g id="edge37" class="edge">
<title>src/index.tsx&#45;&gt;src/index.css</title>
<path fill="none" stroke="#000000" stroke-width="2" stroke-opacity="0.200000" d="M87.94,-66.94C95.77,-69.31 104.47,-71.95 112.75,-74.46"/>
<polygon fill="#000000" fill-opacity="0.200000" stroke="#000000" stroke-width="2" stroke-opacity="0.200000" points="111.92,-76.41 118.27,-76.14 113.14,-72.39 111.92,-76.41"/>
</g>
<!-- src/react&#45;app&#45;env.d.ts -->
<g id="node24" class="node">
<title>src/react&#45;app&#45;env.d.ts</title>
<g id="a_node24"><a xlink:href="src/react-app-env.d.ts" xlink:title="react&#45;app&#45;env.d.ts">
<path fill="#ccffcc" stroke="black" d="M99.58,-323.88C99.58,-323.88 21.92,-323.88 21.92,-323.88 18.96,-323.88 16,-320.92 16,-317.96 16,-317.96 16,-312.04 16,-312.04 16,-309.08 18.96,-306.12 21.92,-306.12 21.92,-306.12 99.58,-306.12 99.58,-306.12 102.54,-306.12 105.5,-309.08 105.5,-312.04 105.5,-312.04 105.5,-317.96 105.5,-317.96 105.5,-320.92 102.54,-323.88 99.58,-323.88"/>
<text text-anchor="start" x="24" y="-311.32" font-family="Helvetica,sans-Serif" font-size="9.00">react&#45;app&#45;env.d.ts</text>
</a>
</g>
</g>
<!-- src/setupTests.ts -->
<g id="node25" class="node">
<title>src/setupTests.ts</title>
<g id="a_node25"><a xlink:href="src/setupTests.ts" xlink:title="setupTests.ts">
<path fill="#ccffcc" stroke="black" d="M89.08,-466.88C89.08,-466.88 32.42,-466.88 32.42,-466.88 29.46,-466.88 26.5,-463.92 26.5,-460.96 26.5,-460.96 26.5,-455.04 26.5,-455.04 26.5,-452.08 29.46,-449.12 32.42,-449.12 32.42,-449.12 89.08,-449.12 89.08,-449.12 92.04,-449.12 95,-452.08 95,-455.04 95,-455.04 95,-460.96 95,-460.96 95,-463.92 92.04,-466.88 89.08,-466.88"/>
<text text-anchor="start" x="34.5" y="-454.32" font-family="Helvetica,sans-Serif" font-size="9.00">setupTests.ts</text>
</a>
</g>
</g>
</g>
</svg>
